Coordinates
version=1
nRows=23
nColumns=38
inDegrees=no

Units are S.I. units (second, meters, Newtons, ...)
If the header above contains a line with 'inDegrees', this indicates whether rotational values are in degrees (yes) or radians (no).

endheader
time	pelvis_tilt	pelvis_list	pelvis_rotation	pelvis_tx	pelvis_ty	pelvis_tz	hip_flexion_r	hip_adduction_r	hip_rotation_r	knee_angle_r	ankle_angle_r	subtalar_angle_r	mtp_angle_r	hip_flexion_l	hip_adduction_l	hip_rotation_l	knee_angle_l	ankle_angle_l	subtalar_angle_l	mtp_angle_l	lumbar_extension	lumbar_bending	lumbar_rotation	arm_flex_r	arm_add_r	arm_rot_r	elbow_flex_r	pro_sup_r	wrist_flex_r	wrist_dev_r	arm_flex_l	arm_add_l	arm_rot_l	elbow_flex_l	pro_sup_l	wrist_flex_l	wrist_dev_l
0	0.118694	1.48634	-1.69058	0.738634	1.08402	1.03501	-0.228353	-0.145123	-0.318944	0.615048	-0.698132	0	0	0.157126	0.0994693	-0.371129	0.403073	-0.0816584	0	0	-0.473785	-0.021469	-0.0303403	-0.075599	-0.388536	0.403412	0.70315	0.86891	0	0	-0.0917395	-0.524047	0.158772	0.791612	1.25888	0	0
0.01	0.299404	1.5298	-1.89073	0.736255	1.07421	1.03152	-0.131863	-0.137566	-0.0964138	0.81482	-0.628371	0	0	0.198788	0.102623	-0.361112	0.409019	-0.0696435	0	0	-0.424358	-0.0310699	-0.011207	-0.0763182	-0.38429	0.395992	0.693919	0.875545	0	0	-0.0877141	-0.520064	0.162285	0.780843	1.26387	0	0
0.02	1.03448	1.53645	-2.62675	0.734855	1.06127	1.02794	-0.106936	-0.185747	-0.0802186	0.820956	-0.580181	0	0	0.2094	0.120777	-0.366023	0.411024	-0.0583827	0	0	-0.391891	-0.0512652	-0.0188785	-0.0876335	-0.378579	0.387119	0.700605	0.881285	0	0	-0.106258	-0.529851	0.1557	0.794681	1.2637	0	0
0.03	1.18164	1.53974	-2.77131	0.73487	1.04895	1.02832	-0.075811	-0.187657	-0.0636865	0.855752	-0.532266	0	0	0.199485	0.120262	-0.369282	0.405048	-0.0528084	0	0	-0.382431	-0.0488412	-0.0224791	-0.0885123	-0.379859	0.384661	0.701942	0.885185	0	0	-0.110173	-0.528738	0.15217	0.79726	1.267	0	0
0.04	1.18408	1.54409	-2.76739	0.735329	1.03661	1.02949	-0.0528265	-0.186655	-0.0576871	0.882936	-0.479416	0	0	0.184814	0.116286	-0.370012	0.398215	-0.0483826	0	0	-0.37801	-0.0415269	-0.0280604	-0.0883688	-0.382518	0.383286	0.703035	0.888045	0	0	-0.11227	-0.525805	0.147194	0.799142	1.27212	0	0
0.05	1.08792	1.54853	-2.66228	0.736087	1.02437	1.03111	-0.033502	-0.18522	-0.0585986	0.90609	-0.429751	0	0	0.167899	0.111239	-0.368439	0.39019	-0.047112	0	0	-0.376376	-0.0321083	-0.0354087	-0.0870193	-0.385551	0.382838	0.703094	0.890013	0	0	-0.113074	-0.522152	0.141225	0.800571	1.27807	0	0
0.06	0.894074	1.55271	-2.45816	0.736985	1.01221	1.03295	-0.0152432	-0.183187	-0.0634532	0.926373	-0.391583	0	0	0.150455	0.106281	-0.364594	0.381878	-0.0468117	0	0	-0.375683	-0.0215495	-0.0429546	-0.0856287	-0.388958	0.382592	0.702731	0.891044	0	0	-0.112701	-0.518737	0.136702	0.802269	1.28326	0	0
0.07	0.602589	1.55448	-2.15425	0.738027	1.00011	1.03497	-0.000602125	-0.181232	-0.0819296	0.96074	-0.331748	0	0	0.130824	0.101874	-0.362531	0.37254	-0.0481146	0	0	-0.376644	-0.0111186	-0.0528092	-0.0840123	-0.392206	0.382542	0.702773	0.892568	0	0	-0.112842	-0.515797	0.130337	0.805861	1.28958	0	0
0.08	0.249974	1.55608	-1.79137	0.73903	0.988397	1.03731	0.0192974	-0.179548	-0.0807913	0.954215	-0.321803	0	0	0.112241	0.096452	-0.361572	0.362472	-0.0501765	0	0	-0.377021	-0.000575465	-0.0580993	-0.0818547	-0.395478	0.382308	0.700411	0.892804	0	0	-0.108423	-0.513263	0.13058	0.807673	1.29225	0	0
0.09	-0.107812	1.55292	-1.42308	0.739901	0.976636	1.03987	0.0343543	-0.17632	-0.0905703	0.960745	-0.297454	0	0	0.0904697	0.0907931	-0.358654	0.352525	-0.0539329	0	0	-0.380429	0.010189	-0.0638889	-0.0803851	-0.3991	0.381371	0.700497	0.892884	0	0	-0.104738	-0.511104	0.128899	0.811067	1.29523	0	0
0.1	-0.324558	1.54741	-1.19771	0.740511	0.964981	1.04253	0.0497894	-0.171575	-0.0974114	0.964562	-0.271678	0	0	0.0678381	0.08441	-0.356612	0.34195	-0.0579542	0	0	-0.385364	0.0201592	-0.0676443	-0.0792242	-0.402633	0.379642	0.701725	0.893379	0	0	-0.100802	-0.509862	0.127826	0.816037	1.29754	0	0
0.11	-0.432007	1.54125	-1.08236	0.740878	0.953352	1.04506	0.0635083	-0.166331	-0.111993	0.973892	-0.231589	0	0	0.0450849	0.0777548	-0.356183	0.3311	-0.0626973	0	0	-0.390912	0.0288607	-0.0708804	-0.0795425	-0.405711	0.376122	0.705323	0.894584	0	0	-0.0980295	-0.510352	0.126875	0.824058	1.29994	0	0
0.12	-0.540618	1.5363	-0.966875	0.74117	0.94205	1.04743	0.0797563	-0.160851	-0.11869	0.963587	-0.205178	0	0	0.0253115	0.0704394	-0.355491	0.320757	-0.0669663	0	0	-0.394859	0.037629	-0.0727382	-0.0793733	-0.408576	0.372903	0.708228	0.895929	0	0	-0.0941693	-0.510901	0.12694	0.831958	1.30137	0	0
0.13	-0.625297	1.53057	-0.874327	0.741578	0.931132	1.04979	0.0959094	-0.154188	-0.122651	0.942663	-0.18488	0	0	0.00600996	0.0625042	-0.352953	0.310889	-0.0716082	0	0	-0.400376	0.0472183	-0.0751484	-0.0787044	-0.411708	0.369401	0.712372	0.897588	0	0	-0.0892416	-0.512282	0.127803	0.841186	1.30366	0	0
0.14	-0.676736	1.52468	-0.814077	0.741901	0.920099	1.05202	0.109567	-0.147139	-0.129376	0.924018	-0.162471	0	0	-0.0137163	0.0542653	-0.351845	0.301139	-0.0766633	0	0	-0.405887	0.0562552	-0.0786017	-0.0790301	-0.413881	0.364548	0.717217	0.898568	0	0	-0.0853393	-0.514689	0.128231	0.851776	1.3063	0	0
0.15	-0.732637	1.51992	-0.749682	0.742152	0.909102	1.05405	0.12368	-0.139544	-0.132087	0.899043	-0.140778	0	0	-0.0316948	0.0459674	-0.352789	0.291474	-0.0818739	0	0	-0.409772	0.0648066	-0.0817107	-0.0793876	-0.415517	0.36034	0.721211	0.899881	0	0	-0.0811063	-0.516815	0.128478	0.861805	1.30979	0	0
0.16	-0.793004	1.51607	-0.680802	0.742387	0.898215	1.05588	0.137341	-0.131649	-0.129506	0.867006	-0.122759	0	0	-0.0480203	0.0379694	-0.354271	0.281685	-0.0880131	0	0	-0.412143	0.0725449	-0.0842769	-0.0795999	-0.41645	0.357219	0.723763	0.900875	0	0	-0.0760025	-0.518936	0.129052	0.871405	1.31422	0	0
0.17	-0.857386	1.51279	-0.607018	0.742638	0.887432	1.05751	0.150238	-0.124168	-0.125423	0.828934	-0.108291	0	0	-0.0627816	0.0301138	-0.35465	0.271953	-0.0948192	0	0	-0.413474	0.0800931	-0.0874097	-0.0796349	-0.416948	0.354987	0.725696	0.90125	0	0	-0.070407	-0.520996	0.129295	0.880717	1.31904	0	0
0.18	-0.898688	1.509	-0.554588	0.742934	0.876592	1.05902	0.159833	-0.115637	-0.133566	0.782746	-0.0971733	0	0	-0.0785727	0.0220087	-0.35391	0.262033	-0.101725	0	0	-0.415611	0.0878637	-0.092134	-0.0797111	-0.417148	0.353075	0.727738	0.901509	0	0	-0.064828	-0.523436	0.129137	0.890048	1.32476	0	0
0.19	-0.929453	1.50564	-0.51256	0.743176	0.865825	1.06031	0.169911	-0.107272	-0.140342	0.731308	-0.0918198	0	0	-0.0940536	0.0143963	-0.352871	0.252333	-0.107753	0	0	-0.418143	0.0949154	-0.0971263	-0.0795269	-0.417062	0.351087	0.729779	0.901691	0	0	-0.0594868	-0.526145	0.128037	0.900036	1.3309	0	0
0.2	-0.877723	1.4826	-0.547263	0.745257	0.855673	1.06456	0.125227	-0.0786657	-0.155241	0.7049	-0.0461914	0	0	-0.126267	-0.00731769	-0.348067	0.237658	-0.118799	0	0	-0.442585	0.121831	-0.098575	-0.0731193	-0.424493	0.351861	0.73302	0.899152	0	0	-0.0420234	-0.519846	0.127858	0.903182	1.34362	0	0
0.21	-0.861281	1.47874	-0.551386	0.745571	0.844694	1.06558	0.123912	-0.0743215	-0.164012	0.643078	-0.0477437	0	0	-0.144752	-0.0145091	-0.349244	0.228645	-0.12298	0	0	-0.449113	0.127954	-0.103766	-0.0746448	-0.424945	0.349345	0.738268	0.898319	0	0	-0.0364914	-0.523052	0.125617	0.915012	1.35129	0	0
0.22	-0.894906	1.47876	-0.509857	0.745398	0.833911	1.06596	0.148628	-0.0720592	-0.166153	0.599185	-0.0627905	0	0	-0.156028	-0.0201219	-0.351041	0.221714	-0.126385	0	0	-0.449666	0.131412	-0.105781	-0.0744177	-0.424525	0.348683	0.739439	0.899072	0	0	-0.0304348	-0.525616	0.124175	0.924111	1.35696	0	0
